<svg width="100" height="100" viewBox="0 0 100 100" xmlns="http://www.w3.org/2000/svg"><title>design-categories-car-wrap-design</title><g fill="none" fill-rule="evenodd"><path d="M84.6 70.568c0-4.105-3.36-7.433-7.504-7.433s-7.504 3.328-7.504 7.433c0 4.104 3.36 7.432 7.504 7.432s7.505-3.328 7.505-7.432" fill="#6E8097" fill-rule="nonzero"/><path d="M84.6 70.568c0-4.105-3.36-7.433-7.504-7.433s-7.504 3.328-7.504 7.433c0 4.104 3.36 7.432 7.504 7.432s7.505-3.328 7.505-7.432z" stroke="#5D6D81" stroke-width="2" stroke-linecap="round" stroke-linejoin="round"/><path d="M92.662 55.329l-6.56-2.6-3.935-15.586a2.996 2.996 0 0 0-2.912-2.252H63.588v1.491c0 8.208-6.718 14.86-15.006 14.86H6.554V69.08c0 .822.67 1.487 1.5 1.487h7.505c0-4.104 3.36-7.433 7.505-7.433 4.144 0 7.504 3.329 7.504 7.433h39.024c0-4.104 3.359-7.433 7.504-7.433 4.144 0 7.505 3.329 7.505 7.433h7.505c.828 0 1.5-.665 1.5-1.487V56.708c0-.606-.373-1.153-.944-1.38" fill="#FFF" fill-rule="nonzero"/><path d="M92.662 55.329l-6.56-2.6-3.935-15.586a2.996 2.996 0 0 0-2.912-2.252H63.588v1.491c0 8.208-6.718 14.86-15.006 14.86H6.554V69.08c0 .822.67 1.487 1.5 1.487h7.505c0-4.104 3.36-7.433 7.505-7.433 4.144 0 7.504 3.329 7.504 7.433h39.024c0-4.104 3.359-7.433 7.504-7.433 4.144 0 7.505 3.329 7.505 7.433h7.505c.828 0 1.5-.665 1.5-1.487V56.708c0-.606-.373-1.153-.944-1.38z" stroke="#5D6D81" stroke-width="2" stroke-linecap="round" stroke-linejoin="round"/><path d="M30.568 70.568c0-4.105-3.36-7.433-7.505-7.433-4.144 0-7.504 3.328-7.504 7.433 0 4.104 3.36 7.432 7.504 7.432s7.505-3.328 7.505-7.432" fill="#6E8097" fill-rule="nonzero"/><path d="M30.568 70.568c0-4.105-3.36-7.433-7.505-7.433-4.144 0-7.504 3.328-7.504 7.433 0 4.104 3.36 7.432 7.504 7.432s7.505-3.328 7.505-7.432z" stroke="#5D6D81" stroke-width="2" stroke-linecap="round" stroke-linejoin="round"/><path d="M23.063 73.54c-1.657 0-3.001-1.331-3.001-2.972 0-1.642 1.344-2.973 3.001-2.973 1.657 0 3.002 1.331 3.002 2.973 0 1.64-1.345 2.973-3.002 2.973m54.033-.001c-1.657 0-3.002-1.331-3.002-2.972 0-1.642 1.345-2.973 3.002-2.973 1.657 0 3.002 1.331 3.002 2.973 0 1.64-1.345 2.973-3.002 2.973" fill="#5D6D81" fill-rule="nonzero"/><path d="M69.592 42.324v7.031c0 1.864 1.524 3.375 3.407 3.375H86.1m-16.508 5.946h3.001" stroke="#5D6D81" stroke-width="2" stroke-linecap="round" stroke-linejoin="round"/><path d="M48.583 51.243H6.553V24.486c0-.82.673-1.486 1.501-1.486h54.033c.828 0 1.5.666 1.5 1.486v11.897c0 8.207-6.717 14.86-15.004 14.86" fill="#7DDEB1" fill-rule="nonzero"/><path d="M19.083 45.502v-.81a7.7 7.7 0 0 0 1.699-.188l.178.79a8.528 8.528 0 0 1-1.877.208zm3.684-.838l-.351-.73c.515-.247 1-.552 1.448-.908l.503.634a8.45 8.45 0 0 1-1.6 1.004zm2.955-2.354l-.632-.506c.357-.446.664-.93.914-1.444l.728.354a8.506 8.506 0 0 1-1.01 1.596zm1.637-3.36l-.788-.184a7.71 7.71 0 0 0 .203-1.698l.81.007a8.52 8.52 0 0 1-.225 1.876zm.027-3.781l-.791.174a7.631 7.631 0 0 0-.551-1.617l.732-.346c.269.57.474 1.17.61 1.789zm-1.61-3.41l-.637.5a7.74 7.74 0 0 0-1.197-1.22l.511-.628c.49.4.933.852 1.323 1.349zm-2.99-2.412l-.354.728a7.632 7.632 0 0 0-1.61-.568l.181-.789a8.442 8.442 0 0 1 1.782.629zm-3.61-.847l-.009.81h-.082a7.72 7.72 0 0 0-1.62.17l-.17-.792a8.538 8.538 0 0 1 1.79-.188h.09zm-3.693.798l.343.733a7.691 7.691 0 0 0-1.458.893l-.497-.64a8.501 8.501 0 0 1 1.612-.986zm-2.98 2.32l.626.514a7.7 7.7 0 0 0-.93 1.434l-.724-.362a8.51 8.51 0 0 1 1.027-1.585zm-1.675 3.344l.786.193a7.7 7.7 0 0 0-.221 1.695l-.81-.015a8.51 8.51 0 0 1 .245-1.873zm-.067 3.782l.792-.165a7.63 7.63 0 0 0 .534 1.623l-.736.338a8.44 8.44 0 0 1-.59-1.796zm1.572 3.425l.642-.492a7.74 7.74 0 0 0 1.184 1.233l-.519.622a8.55 8.55 0 0 1-1.307-1.363zm2.962 2.444l.36-.724a7.661 7.661 0 0 0 1.606.586l-.192.787a8.443 8.443 0 0 1-1.774-.649zm3.602.887l.018-.81c.054.002.11.002.165.002v.81c-.061 0-.122 0-.183-.002zm5.788-9.698a.135.135 0 0 1 .148.107.14.14 0 0 1-.09.162c-.827.278-3.054 1.142-3.41 1.808-.374.698.634 2.577 1.055 3.242a.141.141 0 0 1-.037.19.132.132 0 0 1-.185-.034c-.014-.02-1.412-2.005-2.754-1.867-.781.08-2.147 2.036-2.607 2.784a.134.134 0 0 1-.114.064.13.13 0 0 1-.065-.018.141.141 0 0 1-.056-.181c.316-.67 1.033-2.542.564-3.152-1.005-1.307-3.431-.58-3.456-.573a.134.134 0 0 1-.166-.091.14.14 0 0 1 .085-.173c.71-.244 2.579-1.014 2.782-1.676-.072-1.263-1.729-2.696-1.746-2.71a.142.142 0 0 1-.019-.194.132.132 0 0 1 .187-.023c.021.017 2.143 1.678 3.654 1.175 1.67-.555 2.466-2.92 2.474-2.944a.134.134 0 0 1 .162-.09.14.14 0 0 1 .097.161c-.005.03-.55 2.906.162 3.855.31.413 2.21.328 3.335.178zM23.19 33.46a1.014 1.014 0 1 1-1.104 1.701 1.014 1.014 0 0 1 1.104-1.701zm-7.833 1.988a.76.76 0 0 1 .224 1.052.76.76 0 1 1-.223-1.052zm.715 3.382c.313.229.403.7.2 1.053-.204.353-.623.453-.937.224-.313-.23-.402-.7-.198-1.052.203-.353.622-.454.935-.225zm4.15 1.536a.845.845 0 1 1-.919 1.418.845.845 0 0 1 .92-1.418zm2.876-2.706a.845.845 0 1 1-.92 1.418.845.845 0 0 1 .92-1.418zm-4.305-5.553a1.014 1.014 0 1 1-1.102 1.701 1.014 1.014 0 0 1 1.102-1.701z" fill="#5D6D81" fill-rule="nonzero"/><path d="M31.736 31.525h24.912m-24.912 5.5h19.376m-19.376 5.5h13.842" stroke="#5D6D81" stroke-width="2" stroke-linecap="square"/><path d="M48.583 51.243H6.553V24.486c0-.82.673-1.486 1.501-1.486h54.033c.828 0 1.5.666 1.5 1.486v11.897c0 8.207-6.717 14.86-15.004 14.86z" stroke="#5D6D81" stroke-width="2" stroke-linecap="round" stroke-linejoin="round"/></g></svg>